# xmcd CD database file
#
# Track frame offsets:
#	150
#	22534
#	52479
#	62485
#	89144
#	101108
#	112594
#	137784
#	150684
#	161336
#	183012
#	198283
#	209288
#	240564
#	247033
#	264531
#
# Disc length: 3720 seconds
#
# Revision: 2
# Processed by: cddbd v1.5.2PL0 Copyright (c) Steve Scherf et al.
# Submitted via: CDex 1.70beta2
#
DISCID=d40e8610
DTITLE=21eme Festival Jazzèbre - 21eme Festival Jazzèbre
DYEAR=2009
DGENRE=Jazz
TTITLE0=eric bib - kokomo
TTITLE1=massot florizoone horbaczewski - l acrobate
TTITLE2=claudia solal and benjamin moussay - in walked bud
TTITLE3=ammad jamal - back to the island
TTITLE4=emile parisien quartet m - requiem titanium extrait
TTITLE5=jean louis  - zakir
TTITLE6=nils petter molvaer - friction
TTITLE7=tertje isungset stian westerhus - laden with rain
TTITLE8=sidsel endresen  - slow song
TTITLE9=bass drum bone - insistent
TTITLE10=yves robert - sprituel frisson
TTITLE11=julien lourau  - workchip extrait
TTITLE12=jacky terrasson - smile
TTITLE13=mikko innanen innkvisito - tiller waltz
TTITLE14=henri texier red route quartet - beautiful love
TTITLE15=rigolus - dave
EXTD=YEAR: 2009
EXTT0=
EXTT1=
EXTT2=
EXTT3=
EXTT4=
EXTT5=
EXTT6=
EXTT7=
EXTT8=
EXTT9=
EXTT10=
EXTT11=
EXTT12=
EXTT13=
EXTT14=
EXTT15=
PLAYORDER=
